# xmcd
#
# Track frame offsets:
#	150
#	19148
#	41265
#	62173
#	81335
#	100927
#	127048
#	148701
#	172191
#	192936
#	217441
#	239703
#
# Disc length: 3495 seconds
#
# Revision: 1
# Processed by: cddbd v1.5.1PL0 Copyright (c) Steve Scherf et al.
# Submitted via: CDex 1.50Beta5
#
DISCID=bc0da50c
DTITLE=Sowel - Geofu
DYEAR=1900
DGENRE=Pop
TTITLE0=Sowelu/shine
TTITLE1=Sowelu/Fortune
TTITLE2=Sowelu/Rainbow(original mix)
TTITLE3=Sowelu/across my heart
TTITLE4=Sowelu/I Wanna Know
TTITLE5=Sowelu/beautiful dreamer(album version)
TTITLE6=Soewlu/Part of me
TTITLE7=Soweu/CC
TTITLE8=Sowelu/Can't take my eyes off of you
TTITLE9=Sowelu/call my name
TTITLE10=Sowelu/my dear
TTITLE11=Sowelu/breath〜想いの容量〜
EXTD=
EXTT0=
EXTT1=
EXTT2=
EXTT3=
EXTT4=
EXTT5=
EXTT6=
EXTT7=
EXTT8=
EXTT9=
EXTT10=
EXTT11=
PLAYORDER=
